# xmcd
#
# Track frame offsets: 
#        150
#        11689
#        24658
#        35434
#        48285
#        61059
#        73805
#        86716
#        99089
#        110240
#        119658
#        128916
#        137843
#        150024
#        160765
#        171062
#        181462
#        192794
#        204137
#        214264
#        224549
#        233684
#        244759
#        256198
#        265460
#
# Disc length: 3696 seconds
#
# Revision: 1
# Processed by: cddbd v1.5.2PL0 Copyright (c) Steve Scherf et al.
# Submitted via: ExactAudioCopyFreeDBPlugin 1.0
#
DISCID=5e0e6e19
DTITLE=Various Artist - Phil Spector:  The Anthology, '59 - '62
DYEAR=2013
DGENRE=Rhythm and Blues
TTITLE0=The Crystals - He's a Rebel
TTITLE1=Ben E. King - Spanish Harlem
TTITLE2=The Teddy Bears - To Know Him is to Love Him
TTITLE3=Curtis Lee - Under The Moon of Love
TTITLE4=Bob B. Soxx and The Blue Jeans - Zip-A-Dee-Doo-Dah
TTITLE5=The Alley Cats - Puddin' 'n' Tain
TTITLE6=Connie Francis - Second Hand Love
TTITLE7=Gene Pitney - Every Breath I Take
TTITLE8=Billy Storm - When You Dance
TTITLE9=The Paris Sisters - I Love How You Love Me
TTITLE10=The Blackwells - You Took Advantage of Me
TTITLE11=Bobby Sheen - How Many Nights How Many Days
TTITLE12=Ray Peterson - Corrina, Corrina
TTITLE13=The Crystals - Uptown
TTITLE14=The Teddy Bears - Unchained Melody
TTITLE15=Johnny Nash - Some of Your Lovin'
TTITLE16=The Ducanes - Little Did I Know
TTITLE17=Lavern Baker - Hey Memphis (answer song to Elvis Presley's "L
TTITLE17=ittle Sister")
TTITLE18=Spector's Three - I Really Do
TTITLE19=Phil Harvey (Phil Spector) - Bumbershoot
TTITLE20=The Top Notes - Hearts of Stone
TTITLE21=The Teddy Bears - Little Things Mean a Lot
TTITLE22=The Crystals - There's No Other (Like My Baby)
TTITLE23=Tony and Joe - Where Can You Be
TTITLE24=Troy Shondell - Na Ne No
EXTD=Not Now NOT3CD091
EXTT0=
EXTT1=
EXTT2=
EXTT3=
EXTT4=
EXTT5=
EXTT6=
EXTT7=
EXTT8=
EXTT9=
EXTT10=
EXTT11=
EXTT12=
EXTT13=
EXTT14=
EXTT15=
EXTT16=
EXTT17=
EXTT18=
EXTT19=
EXTT20=
EXTT21=
EXTT22=
EXTT23=
EXTT24=
PLAYORDER=
